<mxfile host="app.diagrams.net" modified="2024-01-25T06:47:35.784Z" agent="Mozilla/5.0 (Windows NT 10.0; Win64; x64) AppleWebKit/537.36 (KHTML, like Gecko) Chrome/120.0.0.0 Safari/537.36" etag="rmuTvdS1QQatEX0CXkjr" version="23.0.1" type="device">
  <diagram name="第 1 页" id="KXkJIYVee8vNoKtShNli">
    <mxGraphModel dx="2074" dy="1138" grid="0" gridSize="10" guides="1" tooltips="1" connect="1" arrows="1" fold="1" page="0" pageScale="1" pageWidth="827" pageHeight="1169" math="0" shadow="0">
      <root>
        <mxCell id="0" />
        <mxCell id="1" parent="0" />
        <mxCell id="HLqG1WOsUkJjD5YKN7Xh-6" value="" style="edgeStyle=none;curved=1;rounded=0;orthogonalLoop=1;jettySize=auto;html=1;fontSize=12;startSize=8;endSize=8;" edge="1" parent="1" source="HLqG1WOsUkJjD5YKN7Xh-1" target="HLqG1WOsUkJjD5YKN7Xh-5">
          <mxGeometry relative="1" as="geometry" />
        </mxCell>
        <mxCell id="HLqG1WOsUkJjD5YKN7Xh-1" value="Vm1" style="rounded=0;whiteSpace=wrap;html=1;fontSize=16;" vertex="1" parent="1">
          <mxGeometry x="-99" y="89" width="120" height="60" as="geometry" />
        </mxCell>
        <mxCell id="HLqG1WOsUkJjD5YKN7Xh-4" value="Vm2&lt;br&gt;&lt;br&gt;&lt;br&gt;&lt;br&gt;&lt;br&gt;&lt;br&gt;&lt;br&gt;&lt;br&gt;&lt;br&gt;&lt;br&gt;&lt;br&gt;&lt;br&gt;" style="rounded=0;whiteSpace=wrap;html=1;fontSize=16;align=center;" vertex="1" parent="1">
          <mxGeometry x="315" y="89" width="535" height="276" as="geometry" />
        </mxCell>
        <mxCell id="HLqG1WOsUkJjD5YKN7Xh-7" value="" style="edgeStyle=none;curved=1;rounded=0;orthogonalLoop=1;jettySize=auto;html=1;fontSize=12;startSize=8;endSize=8;entryX=-0.004;entryY=0.109;entryDx=0;entryDy=0;entryPerimeter=0;" edge="1" parent="1" source="HLqG1WOsUkJjD5YKN7Xh-5" target="HLqG1WOsUkJjD5YKN7Xh-4">
          <mxGeometry relative="1" as="geometry" />
        </mxCell>
        <mxCell id="HLqG1WOsUkJjD5YKN7Xh-5" value="P4 Switch" style="rounded=0;whiteSpace=wrap;html=1;fontSize=16;" vertex="1" parent="1">
          <mxGeometry x="108" y="89" width="120" height="60" as="geometry" />
        </mxCell>
        <mxCell id="HLqG1WOsUkJjD5YKN7Xh-8" value="" style="shape=flexArrow;endArrow=classic;html=1;rounded=0;fontSize=12;startSize=8;endSize=8;curved=1;" edge="1" parent="1">
          <mxGeometry width="50" height="50" relative="1" as="geometry">
            <mxPoint x="-35.5" y="24" as="sourcePoint" />
            <mxPoint x="371.5" y="24" as="targetPoint" />
          </mxGeometry>
        </mxCell>
        <mxCell id="HLqG1WOsUkJjD5YKN7Xh-11" value="1. Typical internet traffic" style="text;strokeColor=none;fillColor=none;html=1;align=center;verticalAlign=middle;whiteSpace=wrap;rounded=0;fontSize=16;" vertex="1" parent="1">
          <mxGeometry x="70.5" y="-23" width="195" height="30" as="geometry" />
        </mxCell>
        <mxCell id="HLqG1WOsUkJjD5YKN7Xh-12" value="MongoDatabase" style="shape=table;startSize=30;container=1;collapsible=0;childLayout=tableLayout;strokeColor=default;fontSize=16;" vertex="1" parent="1">
          <mxGeometry x="315" y="214" width="273" height="150" as="geometry" />
        </mxCell>
        <mxCell id="HLqG1WOsUkJjD5YKN7Xh-13" value="" style="shape=tableRow;horizontal=0;startSize=0;swimlaneHead=0;swimlaneBody=0;strokeColor=inherit;top=0;left=0;bottom=0;right=0;collapsible=0;dropTarget=0;fillColor=none;points=[[0,0.5],[1,0.5]];portConstraint=eastwest;fontSize=16;" vertex="1" parent="HLqG1WOsUkJjD5YKN7Xh-12">
          <mxGeometry y="30" width="273" height="40" as="geometry" />
        </mxCell>
        <mxCell id="HLqG1WOsUkJjD5YKN7Xh-14" value="input port" style="shape=partialRectangle;html=1;whiteSpace=wrap;connectable=0;strokeColor=inherit;overflow=hidden;fillColor=none;top=0;left=0;bottom=0;right=0;pointerEvents=1;fontSize=16;" vertex="1" parent="HLqG1WOsUkJjD5YKN7Xh-13">
          <mxGeometry width="91" height="40" as="geometry">
            <mxRectangle width="91" height="40" as="alternateBounds" />
          </mxGeometry>
        </mxCell>
        <mxCell id="HLqG1WOsUkJjD5YKN7Xh-15" value="output port" style="shape=partialRectangle;html=1;whiteSpace=wrap;connectable=0;strokeColor=inherit;overflow=hidden;fillColor=none;top=0;left=0;bottom=0;right=0;pointerEvents=1;fontSize=16;" vertex="1" parent="HLqG1WOsUkJjD5YKN7Xh-13">
          <mxGeometry x="91" width="91" height="40" as="geometry">
            <mxRectangle width="91" height="40" as="alternateBounds" />
          </mxGeometry>
        </mxCell>
        <mxCell id="HLqG1WOsUkJjD5YKN7Xh-16" value="number" style="shape=partialRectangle;html=1;whiteSpace=wrap;connectable=0;strokeColor=inherit;overflow=hidden;fillColor=none;top=0;left=0;bottom=0;right=0;pointerEvents=1;fontSize=16;" vertex="1" parent="HLqG1WOsUkJjD5YKN7Xh-13">
          <mxGeometry x="182" width="91" height="40" as="geometry">
            <mxRectangle width="91" height="40" as="alternateBounds" />
          </mxGeometry>
        </mxCell>
        <mxCell id="HLqG1WOsUkJjD5YKN7Xh-17" value="" style="shape=tableRow;horizontal=0;startSize=0;swimlaneHead=0;swimlaneBody=0;strokeColor=inherit;top=0;left=0;bottom=0;right=0;collapsible=0;dropTarget=0;fillColor=none;points=[[0,0.5],[1,0.5]];portConstraint=eastwest;fontSize=16;" vertex="1" parent="HLqG1WOsUkJjD5YKN7Xh-12">
          <mxGeometry y="70" width="273" height="40" as="geometry" />
        </mxCell>
        <mxCell id="HLqG1WOsUkJjD5YKN7Xh-18" value="123" style="shape=partialRectangle;html=1;whiteSpace=wrap;connectable=0;strokeColor=inherit;overflow=hidden;fillColor=none;top=0;left=0;bottom=0;right=0;pointerEvents=1;fontSize=16;" vertex="1" parent="HLqG1WOsUkJjD5YKN7Xh-17">
          <mxGeometry width="91" height="40" as="geometry">
            <mxRectangle width="91" height="40" as="alternateBounds" />
          </mxGeometry>
        </mxCell>
        <mxCell id="HLqG1WOsUkJjD5YKN7Xh-19" value="456" style="shape=partialRectangle;html=1;whiteSpace=wrap;connectable=0;strokeColor=inherit;overflow=hidden;fillColor=none;top=0;left=0;bottom=0;right=0;pointerEvents=1;fontSize=16;" vertex="1" parent="HLqG1WOsUkJjD5YKN7Xh-17">
          <mxGeometry x="91" width="91" height="40" as="geometry">
            <mxRectangle width="91" height="40" as="alternateBounds" />
          </mxGeometry>
        </mxCell>
        <mxCell id="HLqG1WOsUkJjD5YKN7Xh-20" value="15" style="shape=partialRectangle;html=1;whiteSpace=wrap;connectable=0;strokeColor=inherit;overflow=hidden;fillColor=none;top=0;left=0;bottom=0;right=0;pointerEvents=1;fontSize=16;" vertex="1" parent="HLqG1WOsUkJjD5YKN7Xh-17">
          <mxGeometry x="182" width="91" height="40" as="geometry">
            <mxRectangle width="91" height="40" as="alternateBounds" />
          </mxGeometry>
        </mxCell>
        <mxCell id="HLqG1WOsUkJjD5YKN7Xh-21" value="" style="shape=tableRow;horizontal=0;startSize=0;swimlaneHead=0;swimlaneBody=0;strokeColor=inherit;top=0;left=0;bottom=0;right=0;collapsible=0;dropTarget=0;fillColor=none;points=[[0,0.5],[1,0.5]];portConstraint=eastwest;fontSize=16;" vertex="1" parent="HLqG1WOsUkJjD5YKN7Xh-12">
          <mxGeometry y="110" width="273" height="40" as="geometry" />
        </mxCell>
        <mxCell id="HLqG1WOsUkJjD5YKN7Xh-22" value="456" style="shape=partialRectangle;html=1;whiteSpace=wrap;connectable=0;strokeColor=inherit;overflow=hidden;fillColor=none;top=0;left=0;bottom=0;right=0;pointerEvents=1;fontSize=16;" vertex="1" parent="HLqG1WOsUkJjD5YKN7Xh-21">
          <mxGeometry width="91" height="40" as="geometry">
            <mxRectangle width="91" height="40" as="alternateBounds" />
          </mxGeometry>
        </mxCell>
        <mxCell id="HLqG1WOsUkJjD5YKN7Xh-23" value="789" style="shape=partialRectangle;html=1;whiteSpace=wrap;connectable=0;strokeColor=inherit;overflow=hidden;fillColor=none;top=0;left=0;bottom=0;right=0;pointerEvents=1;fontSize=16;" vertex="1" parent="HLqG1WOsUkJjD5YKN7Xh-21">
          <mxGeometry x="91" width="91" height="40" as="geometry">
            <mxRectangle width="91" height="40" as="alternateBounds" />
          </mxGeometry>
        </mxCell>
        <mxCell id="HLqG1WOsUkJjD5YKN7Xh-24" value="16" style="shape=partialRectangle;html=1;whiteSpace=wrap;connectable=0;strokeColor=inherit;overflow=hidden;fillColor=none;top=0;left=0;bottom=0;right=0;pointerEvents=1;fontSize=16;" vertex="1" parent="HLqG1WOsUkJjD5YKN7Xh-21">
          <mxGeometry x="182" width="91" height="40" as="geometry">
            <mxRectangle width="91" height="40" as="alternateBounds" />
          </mxGeometry>
        </mxCell>
        <mxCell id="HLqG1WOsUkJjD5YKN7Xh-25" value="" style="endArrow=classic;html=1;rounded=0;fontSize=12;startSize=8;endSize=8;curved=1;exitX=0.5;exitY=1;exitDx=0;exitDy=0;" edge="1" parent="1" source="HLqG1WOsUkJjD5YKN7Xh-11" target="HLqG1WOsUkJjD5YKN7Xh-5">
          <mxGeometry width="50" height="50" relative="1" as="geometry">
            <mxPoint x="175" y="226" as="sourcePoint" />
            <mxPoint x="225" y="176" as="targetPoint" />
          </mxGeometry>
        </mxCell>
        <mxCell id="HLqG1WOsUkJjD5YKN7Xh-26" value="&lt;span style=&quot;font-weight: normal;&quot;&gt;2. Record traffic information in P4 register&lt;/span&gt;" style="text;strokeColor=none;fillColor=none;html=1;fontSize=16;fontStyle=1;verticalAlign=middle;align=center;" vertex="1" parent="1">
          <mxGeometry x="172" y="45" width="337" height="30" as="geometry" />
        </mxCell>
        <mxCell id="HLqG1WOsUkJjD5YKN7Xh-28" value="" style="shape=flexArrow;endArrow=classic;html=1;rounded=0;fontSize=12;startSize=8;endSize=8;curved=1;entryX=-0.004;entryY=-0.15;entryDx=0;entryDy=0;entryPerimeter=0;" edge="1" parent="1" target="HLqG1WOsUkJjD5YKN7Xh-13">
          <mxGeometry width="50" height="50" relative="1" as="geometry">
            <mxPoint x="167.5" y="158" as="sourcePoint" />
            <mxPoint x="301" y="200" as="targetPoint" />
            <Array as="points">
              <mxPoint x="168" y="238" />
            </Array>
          </mxGeometry>
        </mxCell>
        <mxCell id="HLqG1WOsUkJjD5YKN7Xh-29" value="&lt;span style=&quot;font-weight: normal;&quot;&gt;3. Retrieve information from P4 register and transmit&lt;/span&gt;" style="text;strokeColor=none;fillColor=none;html=1;fontSize=16;fontStyle=1;verticalAlign=middle;align=center;" vertex="1" parent="1">
          <mxGeometry x="-114" y="258" width="396" height="46" as="geometry" />
        </mxCell>
        <mxCell id="HLqG1WOsUkJjD5YKN7Xh-30" value="&lt;span style=&quot;font-weight: normal;&quot;&gt;4. Store in Mongo Database&lt;/span&gt;" style="text;strokeColor=none;fillColor=none;html=1;fontSize=16;fontStyle=1;verticalAlign=middle;align=center;" vertex="1" parent="1">
          <mxGeometry x="317" y="162" width="212" height="46" as="geometry" />
        </mxCell>
        <mxCell id="HLqG1WOsUkJjD5YKN7Xh-31" value="Web Server&lt;br&gt;(Flask)" style="ellipse;shape=cloud;whiteSpace=wrap;html=1;" vertex="1" parent="1">
          <mxGeometry x="594" y="116" width="230" height="144" as="geometry" />
        </mxCell>
        <mxCell id="HLqG1WOsUkJjD5YKN7Xh-34" style="edgeStyle=orthogonalEdgeStyle;rounded=0;orthogonalLoop=1;jettySize=auto;html=1;exitX=1;exitY=0.5;exitDx=0;exitDy=0;entryX=0.55;entryY=0.95;entryDx=0;entryDy=0;entryPerimeter=0;" edge="1" parent="1" source="HLqG1WOsUkJjD5YKN7Xh-17" target="HLqG1WOsUkJjD5YKN7Xh-31">
          <mxGeometry relative="1" as="geometry" />
        </mxCell>
        <mxCell id="HLqG1WOsUkJjD5YKN7Xh-35" value="&lt;span style=&quot;font-weight: normal;&quot;&gt;5. Display datas on the website&lt;/span&gt;" style="text;strokeColor=none;fillColor=none;html=1;fontSize=16;fontStyle=1;verticalAlign=middle;align=center;" vertex="1" parent="1">
          <mxGeometry x="609" y="308" width="226" height="46" as="geometry" />
        </mxCell>
      </root>
    </mxGraphModel>
  </diagram>
</mxfile>
